<svg width="24" height="24" viewBox="0 0 24 24" fill="none" xmlns="http://www.w3.org/2000/svg">
<path d="M4.7041 4H10.7041V10H4.7041V4Z" stroke="white" stroke-width="1.5" stroke-linecap="round" stroke-linejoin="round"/>
<path d="M14.7041 4H20.7041V10H14.7041V4Z" stroke="white" stroke-width="1.5" stroke-linecap="round" stroke-linejoin="round"/>
<path d="M4.7041 14H10.7041V20H4.7041V14Z" stroke="white" stroke-width="1.5" stroke-linecap="round" stroke-linejoin="round"/>
<path d="M14.7041 17C14.7041 17.7956 15.0202 18.5587 15.5828 19.1213C16.1454 19.6839 16.9085 20 17.7041 20C18.4998 20 19.2628 19.6839 19.8254 19.1213C20.388 18.5587 20.7041 17.7956 20.7041 17C20.7041 16.2044 20.388 15.4413 19.8254 14.8787C19.2628 14.3161 18.4998 14 17.7041 14C16.9085 14 16.1454 14.3161 15.5828 14.8787C15.0202 15.4413 14.7041 16.2044 14.7041 17Z" stroke="white" stroke-width="1.5" stroke-linecap="round" stroke-linejoin="round"/>
</svg>
