<svg width="24" height="24" viewBox="0 0 24 24" fill="none" xmlns="http://www.w3.org/2000/svg">
<path d="M7.5 9.52802C7.5 10.1911 7.76339 10.8269 8.23223 11.2958C8.70107 11.7646 9.33696 12.028 10 12.028C10.663 12.028 11.2989 11.7646 11.7678 11.2958C12.2366 10.8269 12.5 10.1911 12.5 9.52802C12.5 8.86497 12.2366 8.22909 11.7678 7.76025C11.2989 7.29141 10.663 7.02802 10 7.02802C9.33696 7.02802 8.70107 7.29141 8.23223 7.76025C7.76339 8.22909 7.5 8.86497 7.5 9.52802Z" stroke="white" stroke-width="1.5" stroke-linecap="round" stroke-linejoin="round"/>
<path d="M10.85 18.033C10.5318 18.2216 10.1598 18.2988 9.79283 18.2527C9.42583 18.2065 9.08462 18.0395 8.82301 17.778L5.28601 14.242C4.53335 13.4891 3.97194 12.5668 3.64877 11.5524C3.32559 10.538 3.25004 9.46102 3.42843 8.41145C3.60683 7.36188 4.03398 6.37029 4.67415 5.51964C5.31432 4.669 6.1489 3.98403 7.10806 3.52204C8.06722 3.06005 9.12307 2.83448 10.1873 2.8642C11.2515 2.89392 12.2931 3.17806 13.225 3.69286C14.1569 4.20766 14.9519 4.93814 15.5436 5.82318C16.1353 6.70823 16.5065 7.72211 16.626 8.78M17.5 12.861H15.417C15.0855 12.861 14.7675 12.9927 14.5331 13.2271C14.2987 13.4615 14.167 13.7795 14.167 14.111C14.167 14.4425 14.2987 14.7605 14.5331 14.9949C14.7675 15.2293 15.0855 15.361 15.417 15.361H16.25C16.5815 15.361 16.8995 15.4927 17.1339 15.7271C17.3683 15.9615 17.5 16.2795 17.5 16.611C17.5 16.9425 17.3683 17.2605 17.1339 17.4949C16.8995 17.7293 16.5815 17.861 16.25 17.861H14.167M15.833 17.861V18.695M15.833 12.028V12.861" stroke="white" stroke-width="1.5" stroke-linecap="round" stroke-linejoin="round"/>
</svg>
