<svg xmlns="http://www.w3.org/2000/svg" width="28" height="27" viewBox="0 0 28 27" fill="none">
  <path d="M21.0049 2C22.4781 2 23.6729 3.16142 23.6729 4.59375V24.8867C23.6729 25.4975 22.9959 25.8654 22.4834 25.5332L20.1875 24.0449C19.886 23.8495 19.4891 23.8884 19.2314 24.1387L17.541 25.7822C17.242 26.0728 16.7658 26.0729 16.4668 25.7822L14.873 24.2324C14.5741 23.9422 14.0987 23.9422 13.7998 24.2324L12.2061 25.7822C11.9071 26.0728 11.4308 26.0728 11.1318 25.7822L9.44141 24.1387C9.1837 23.8884 8.78684 23.8495 8.48535 24.0449L6.18945 25.5332C5.67692 25.8654 5 25.4975 5 24.8867V4.59375C5 3.16142 6.19472 2 7.66797 2H21.0049ZM14.3359 7.33594C14.06 7.33622 13.8359 7.55997 13.8359 7.83594V9.08691H13.7529C12.5102 9.08711 11.502 10.0941 11.502 11.3369C11.5022 12.5796 12.5103 13.5877 13.7529 13.5879H14.9199L15.0479 13.5938C15.6782 13.6579 16.1698 14.1906 16.1699 14.8379C16.1697 15.4851 15.6781 16.0178 15.0479 16.082L14.9199 16.0889H12.002C11.726 16.0891 11.502 16.3128 11.502 16.5889C11.5022 16.8646 11.7262 17.0887 12.002 17.0889H13.8359V18.3389C13.8362 18.6146 14.0602 18.8386 14.3359 18.8389C14.6119 18.8389 14.8357 18.6148 14.8359 18.3389V17.0889H14.9199L15.1494 17.0771C16.2843 16.962 17.1697 16.0031 17.1699 14.8379C17.1698 13.6727 16.2843 12.7147 15.1494 12.5996L14.9199 12.5879H13.7529C13.0626 12.5877 12.5022 12.0273 12.502 11.3369C12.502 10.6464 13.0625 10.0871 13.7529 10.0869H16.6699L16.7705 10.0762C16.9983 10.0298 17.1695 9.82827 17.1699 9.58691C17.1699 9.34515 16.9986 9.14315 16.7705 9.09668L16.6699 9.08691H14.8359V7.83594C14.8359 7.5598 14.6121 7.33594 14.3359 7.33594Z" fill="url(#paint0_linear_80_7913)"/>
  <path d="M21.0049 2C22.4781 2 23.6729 3.16142 23.6729 4.59375V24.8867C23.6729 25.4975 22.9959 25.8654 22.4834 25.5332L20.1875 24.0449C19.886 23.8495 19.4891 23.8884 19.2314 24.1387L17.541 25.7822C17.242 26.0728 16.7658 26.0729 16.4668 25.7822L14.873 24.2324C14.5741 23.9422 14.0987 23.9422 13.7998 24.2324L12.2061 25.7822C11.9071 26.0728 11.4308 26.0728 11.1318 25.7822L9.44141 24.1387C9.1837 23.8884 8.78684 23.8495 8.48535 24.0449L6.18945 25.5332C5.67692 25.8654 5 25.4975 5 24.8867V4.59375C5 3.16142 6.19472 2 7.66797 2H21.0049ZM14.3359 7.33594C14.06 7.33622 13.8359 7.55997 13.8359 7.83594V9.08691H13.7529C12.5102 9.08711 11.502 10.0941 11.502 11.3369C11.5022 12.5796 12.5103 13.5877 13.7529 13.5879H14.9199L15.0479 13.5938C15.6782 13.6579 16.1698 14.1906 16.1699 14.8379C16.1697 15.4851 15.6781 16.0178 15.0479 16.082L14.9199 16.0889H12.002C11.726 16.0891 11.502 16.3128 11.502 16.5889C11.5022 16.8646 11.7262 17.0887 12.002 17.0889H13.8359V18.3389C13.8362 18.6146 14.0602 18.8386 14.3359 18.8389C14.6119 18.8389 14.8357 18.6148 14.8359 18.3389V17.0889H14.9199L15.1494 17.0771C16.2843 16.962 17.1697 16.0031 17.1699 14.8379C17.1698 13.6727 16.2843 12.7147 15.1494 12.5996L14.9199 12.5879H13.7529C13.0626 12.5877 12.5022 12.0273 12.502 11.3369C12.502 10.6464 13.0625 10.0871 13.7529 10.0869H16.6699L16.7705 10.0762C16.9983 10.0298 17.1695 9.82827 17.1699 9.58691C17.1699 9.34515 16.9986 9.14315 16.7705 9.09668L16.6699 9.08691H14.8359V7.83594C14.8359 7.5598 14.6121 7.33594 14.3359 7.33594Z" fill="url(#paint1_linear_80_7913)"/>
  <defs>
    <linearGradient id="paint0_linear_80_7913" x1="14.3364" y1="2" x2="14.3364" y2="26.2394" gradientUnits="userSpaceOnUse">
      <stop stop-color="#FFF5F0"/>
      <stop offset="1" stop-color="#F4C8D0"/>
    </linearGradient>
    <linearGradient id="paint1_linear_80_7913" x1="15.4742" y1="-48.3725" x2="-32.2048" y2="-18.6255" gradientUnits="userSpaceOnUse">
      <stop stop-color="#ED8A95"/>
      <stop offset="0.815713" stop-color="#C40016"/>
    </linearGradient>
  </defs>
</svg>