<svg xmlns="http://www.w3.org/2000/svg" width="28" height="27" viewBox="0 0 28 27" fill="none">
  <path d="M20 14C18.9464 14.0012 17.9111 13.7247 16.9984 13.1982C16.0858 12.6717 15.328 11.914 14.8016 11.0013C14.2752 10.0886 13.9987 9.05326 14 7.99965C14.0013 6.94604 14.2803 5.91139 14.809 5H6.242L6.2 4.648C6.11382 3.9186 5.76306 3.24615 5.21419 2.7581C4.66532 2.27005 3.95647 2.00031 3.222 2H3C2.73478 2 2.48043 2.10536 2.29289 2.29289C2.10536 2.48043 2 2.73478 2 3C2 3.26522 2.10536 3.51957 2.29289 3.70711C2.48043 3.89464 2.73478 4 3 4H3.222C3.46693 4.00003 3.70334 4.08996 3.88637 4.25272C4.06941 4.41547 4.18634 4.63975 4.215 4.883L5.591 16.583C5.73385 17.7998 6.31848 18.9218 7.23391 19.736C8.14934 20.5502 9.33185 21 10.557 21H21C21.2652 21 21.5196 20.8946 21.7071 20.7071C21.8946 20.5196 22 20.2652 22 20C22 19.7348 21.8946 19.4804 21.7071 19.2929C21.5196 19.1054 21.2652 19 21 19H10.557C9.93788 18.9985 9.33441 18.8054 8.82934 18.4473C8.32428 18.0893 7.94237 17.5837 7.736 17H19.657C20.8293 17.0001 21.9643 16.5882 22.8638 15.8364C23.7633 15.0846 24.37 14.0407 24.578 12.887L24.816 11.568C24.2597 12.3222 23.5341 12.9351 22.6976 13.3576C21.8611 13.78 20.9371 14 20 14Z" fill="url(#paint0_linear_80_7905)"/>
  <path d="M8.99992 26.0006C10.1045 26.0006 10.9999 25.1052 10.9999 24.0006C10.9999 22.8961 10.1045 22.0006 8.99992 22.0006C7.89535 22.0006 6.99992 22.8961 6.99992 24.0006C6.99992 25.1052 7.89535 26.0006 8.99992 26.0006Z" fill="url(#paint1_linear_80_7905)"/>
  <path d="M19 26.0006C20.1046 26.0006 21 25.1052 21 24.0006C21 22.8961 20.1046 22.0006 19 22.0006C17.8954 22.0006 17 22.8961 17 24.0006C17 25.1052 17.8954 26.0006 19 26.0006Z" fill="url(#paint2_linear_80_7905)"/>
  <path d="M17.7331 10.9457C17.9051 11.1315 18.1129 11.2804 18.3441 11.3835C18.5753 11.4867 18.825 11.5418 19.0781 11.5457H19.1111C19.3591 11.5465 19.6049 11.4981 19.8341 11.4031C20.0632 11.3082 20.2713 11.1687 20.4461 10.9927L24.7181 6.72072C24.9065 6.53269 25.0125 6.27749 25.0128 6.01128C25.0131 5.74508 24.9076 5.48966 24.7196 5.30122C24.5315 5.11279 24.2763 5.00677 24.0101 5.00649C23.7439 5.0062 23.4885 5.11168 23.3001 5.29972L19.1131 9.49372L17.8791 8.16972C17.6979 7.97572 17.4472 7.86162 17.1819 7.85252C16.9166 7.84343 16.6586 7.94008 16.4646 8.12122C16.2706 8.30237 16.1565 8.55316 16.1474 8.81843C16.1383 9.0837 16.2349 9.34172 16.4161 9.53572L17.7331 10.9457Z" fill="url(#paint3_linear_80_7905)"/>
  <defs>
    <linearGradient id="paint0_linear_80_7905" x1="14.9086" y1="-47.8763" x2="-36.0153" y2="-8.33101" gradientUnits="userSpaceOnUse">
      <stop stop-color="#ED8A95"/>
      <stop offset="0.815713" stop-color="#C40016"/>
    </linearGradient>
    <linearGradient id="paint1_linear_80_7905" x1="14.9086" y1="-47.8763" x2="-36.0153" y2="-8.33101" gradientUnits="userSpaceOnUse">
      <stop stop-color="#ED8A95"/>
      <stop offset="0.815713" stop-color="#C40016"/>
    </linearGradient>
    <linearGradient id="paint2_linear_80_7905" x1="14.9086" y1="-47.8763" x2="-36.0153" y2="-8.33101" gradientUnits="userSpaceOnUse">
      <stop stop-color="#ED8A95"/>
      <stop offset="0.815713" stop-color="#C40016"/>
    </linearGradient>
    <linearGradient id="paint3_linear_80_7905" x1="14.9086" y1="-47.8763" x2="-36.0153" y2="-8.33101" gradientUnits="userSpaceOnUse">
      <stop stop-color="#ED8A95"/>
      <stop offset="0.815713" stop-color="#C40016"/>
    </linearGradient>
  </defs>
</svg>